<svg width="298" height="314" viewBox="0 0 298 314" fill="none" xmlns="http://www.w3.org/2000/svg">
<path d="M100.575 157C113.418 157 125.735 151.624 134.817 142.055C143.898 132.486 149 119.508 149 105.975C149 92.4423 143.898 79.4639 134.817 69.8949C125.735 60.3258 113.418 54.95 100.575 54.95C87.7319 54.95 75.4148 60.3258 66.3334 69.8949C57.2519 79.4639 52.15 92.4423 52.15 105.975C52.15 119.508 57.2519 132.486 66.3334 142.055C75.4148 151.624 87.7319 157 100.575 157ZM185.311 237.777C193.208 241.183 203.251 243.35 216.035 243.35C275.635 243.35 275.635 196.25 275.635 196.25C275.635 190.007 273.282 184.019 269.094 179.603C264.906 175.187 259.225 172.704 253.3 172.7H184.343C190.199 180.173 193.715 189.734 193.715 200.175V205.764C193.683 207.086 193.599 208.406 193.462 209.721C192.447 219.528 189.672 229.046 185.311 237.777ZM253.3 117.75C253.3 128.16 249.375 138.143 242.39 145.504C235.404 152.865 225.929 157 216.05 157C206.171 157 196.696 152.865 189.71 145.504C182.725 138.143 178.8 128.16 178.8 117.75C178.8 107.34 182.725 97.3569 189.71 89.9961C196.696 82.6353 206.171 78.5 216.05 78.5C225.929 78.5 235.404 82.6353 242.39 89.9961C249.375 97.3569 253.3 107.34 253.3 117.75ZM22.35 204.1C22.35 195.772 25.4896 187.785 31.0782 181.897C36.6668 176.008 44.2465 172.7 52.15 172.7H149C156.903 172.7 164.483 176.008 170.072 181.897C175.66 187.785 178.8 195.772 178.8 204.1C178.8 204.1 178.8 266.9 100.575 266.9C22.35 266.9 22.35 204.1 22.35 204.1Z" fill="#D9D9D9" fill-opacity="0.19"/>
</svg>
