<svg xmlns="http://www.w3.org/2000/svg" version="1.1" xmlns:xlink="http://www.w3.org/1999/xlink" xmlns:svgjs="http://svgjs.dev/svgjs" viewBox="0 0 800 800"><g transform="matrix(1,0,0,1,0,0)"><path d="M323.57513225052116 403.02685612059116C325.07564041389867 402.16069336047735 326.92435958610133 402.16069336047735 328.42486774947884 403.0270986073661L355.07513426335083 418.41361193813407C356.57564242672834 419.2797746982479 357.50000201282967 420.8809148732288 357.50000201282967 422.6134828802314V453.3865095417673C357.50000201282967 455.11907754876995 356.57564242672834 456.7202177237508 355.07513426335083 457.58662297063955L328.42486774947884 472.9731363014075C326.92435958610133 473.8392990615214 325.07564041389867 473.8392990615214 323.57513225052116 472.9728938146326L296.92486573664917 457.5863804838646C295.42435757327166 456.7202177237508 294.49999798717033 455.11907754876995 294.49999798717033 453.3865095417673V422.6134828802314C294.49999798717033 420.8809148732288 295.42435757327166 419.2797746982479 296.92486573664917 418.41336945135913L323.57513225052116 403.02685612059116Z " stroke-width="4" stroke="#ff3895" fill="none" opacity="0.01" transform="matrix(0.9945218953682733,0.672477198829796,0.10452846326765346,1.0761884812801263,-39.62014345437069,-245.07118331340808)"></path><path d="M339.79460186708275 360.63546089230624C342.70630223173197 358.9546926792282 346.29369776826803 358.9546926792282 349.20539813291725 360.6359314321195L400.9196057729308 390.49309420491926C403.83130613758 392.17386241799727 405.6250039058481 395.2808368051625 405.6250039058481 398.6428437711319V458.35716931673136C405.6250039058481 461.71917628270074 403.83130613758 464.82615066986597 400.9196057729308 466.5073894227573L349.20539813291725 496.36455219555705C346.29369776826803 498.04532040863506 342.70630223173197 498.04532040863506 339.79460186708275 496.36408165574375L288.0803942270692 466.50691888294403C285.16869386242 464.82615066986597 283.3749960941519 461.71917628270074 283.3749960941519 458.35716931673136V398.6428437711319C283.3749960941519 395.2808368051625 285.16869386242 392.17386241799727 288.0803942270692 390.49262366510595L339.79460186708275 360.63546089230624Z " stroke-width="7" stroke="#e35ab5" fill="none" opacity="0.2575" transform="matrix(0.996917333733128,0.4628228526909106,0.07845909572784494,1.039517146947039,-30.15057178438917,-172.10894639453545)"></path><path d="M356.01407148364433 318.2440504052322C360.3369640495652 315.74867673918993 365.6630359504348 315.74867673918993 369.98592851635567 318.2447489980839L446.7640772825108 362.57256121291533C451.08696984843164 365.0679348789576 453.7500057988665 369.68074347830725 453.7500057988665 374.67218940324335V463.3278138329064C453.7500057988665 468.3192597578425 451.08696984843164 472.9320683571921 446.7640772825108 475.428140616086L369.98592851635567 519.7559528309175C365.6630359504348 522.2513264969597 360.3369640495652 522.2513264969597 356.01407148364433 519.7552542380658L279.2359227174892 475.42744202323433C274.91303015156836 472.9320683571921 272.2499942011336 468.3192597578425 272.2499942011336 463.3278138329064V374.67218940324335C272.2499942011336 369.68074347830725 274.91303015156836 365.0679348789576 279.2359227174892 362.5718626200637L356.01407148364433 318.2440504052322Z " stroke-width="10" stroke="#c472d1" fill="none" opacity="0.505" transform="matrix(0.9986295347545738,0.29151976801966734,0.05233595624294383,1.016650249656939,-20.386196399007076,-110.88773940601953)"></path><path d="M372.2335411002059 275.85264754755275C377.9676258673985 272.54266842854634 385.0323741326015 272.54266842854634 390.7664588997941 275.8535741934427L492.6085487920908 334.652035850306C498.3426335592833 337.9620149693124 501.87500769188483 344.0806577808464 501.87500769188483 350.70154266474935V468.29846597847586C501.87500769188483 474.9193508623788 498.3426335592833 481.03799367391275 492.6085487920908 484.3488994388092L390.7664588997941 543.1473610956724C385.0323741326015 546.4573402146789 377.9676258673985 546.4573402146789 372.2335411002059 543.1464344497824L270.39145120790926 484.3479727929192C264.65736644071666 481.03799367391275 261.12499230811517 474.9193508623788 261.12499230811517 468.29846597847586V350.70154266474935C261.12499230811517 344.0806577808464 264.65736644071666 337.9620149693124 270.39145120790926 334.651109204416L372.2335411002059 275.85264754755275Z " stroke-width="13" stroke="#9e86e9" fill="none" opacity="0.7525" transform="matrix(0.9996573249755573,0.1411083166408891,0.02617694830787315,1.0040378438031863,-10.33370931337214,-55.00530163809907)"></path><path d="M388.4530107167675 233.46125231926777C395.59828768523175 229.33666774729716 404.40171231476825 229.33666774729716 411.5469892832325 233.46240701819613L538.4530203016707 306.7315181170911C545.5982972701349 310.8561026890618 550.0000095849032 318.48057971278024 550.0000095849032 326.7309035556499V473.2691257534399C550.0000095849032 481.5194495963096 545.5982972701349 489.14392662002797 538.4530203016707 493.26966589092694L411.5469892832325 566.538776989822C404.40171231476825 570.6633615617925 395.59828768523175 570.6633615617925 388.4530107167675 566.5376222908938L261.54697969832927 493.26851119199864C254.401702729865 489.14392662002797 249.99999041509682 481.5194495963096 249.99999041509682 473.2691257534399V326.7309035556499C249.99999041509682 318.48057971278024 254.401702729865 310.8561026890618 261.54697969832927 306.7303634181629L388.4530107167675 233.46125231926777Z " stroke-width="16" stroke="#6b97ff" fill="none" opacity="1" transform="matrix(1,0,0,1,0,0)"></path></g></svg>