<svg xmlns="http://www.w3.org/2000/svg" version="1.1" xmlns:xlink="http://www.w3.org/1999/xlink" xmlns:svgjs="http://svgjs.dev/svgjs" viewBox="0 0 800 800"><g transform="matrix(1,0,0,1,0,0)"><rect width="63" height="63" x="552.5" y="581.5" stroke-width="4" stroke="#ff3895" fill="none" opacity="0.1" rx="110" ry="110" transform="matrix(-0.1736481776669303,0.8491389277319507,-0.984807753012208,-0.9430643199677458,863.3823722716553,626.418859055959)"></rect><rect width="122.25" height="122.25" x="476.875" y="498.625" stroke-width="7" stroke="#e35ab5" fill="none" opacity="0.325" rx="82.5" ry="82.5" transform="matrix(0.25881904510252074,1.1064531020024595,-0.9659258262890683,-0.2656358877090955,682.842712474619,128.06202575086218)"></rect><rect width="181.5" height="181.5" x="401.25" y="415.75" stroke-width="10" stroke="#c472d1" fill="none" opacity="0.55" rx="55" ry="55" transform="matrix(0.6427876096865394,0.9873739666145129,-0.766044443118978,0.37901735491357097,449.30273337297547,-138.82731263950177)"></rect><rect width="240.75" height="240.75" x="325.625" y="332.875" stroke-width="13" stroke="#9e86e9" fill="none" opacity="0.775" rx="27.5" ry="27.5" transform="matrix(0.9063077870366499,0.57428217145422,-0.42261826174069944,0.835585744471507,206.52418988161983,-167.15775745051883)"></rect><rect width="300" height="300" x="250" y="250" stroke-width="16" stroke="#6b97ff" fill="none" opacity="1" rx="0" ry="0" transform="matrix(1,0,0,1,0,0)"></rect></g></svg>