<svg xmlns="http://www.w3.org/2000/svg" version="1.1" xmlns:xlink="http://www.w3.org/1999/xlink" xmlns:svgjs="http://svgjs.dev/svgjs" viewBox="0 0 800 800"><g transform="matrix(1,0,0,1,0,0)"><path d="M265.8790210382665 166.9011271452014C272.89321603046335 152.727563190381 293.1067812285644 152.727563190381 300.12097622076124 166.9011271452014L517.494164545114 606.1555376124213C523.776759133713 618.8506192894747 514.5391101734014 633.7290410743933 500.37509713768804 633.7290410743933H65.62490012133969C51.46088708562627 633.7290410743933 42.22323812531482 618.8506192894747 48.505832713913776 606.1555376124213L265.8790210382665 166.9011271452014Z " stroke-width="0.5" stroke="#ff3895" fill="none" opacity="0.01" transform="matrix(0.9945218953682733,0.4930405784197898,0.10452846326765346,1.057328932513275,-39.62014345437069,-149.91818770933952)"></path><path d="M296.69452002391074 189.00796971474446C303.0673536346858 176.13040288687117 321.4326382940598 176.13040288687117 327.80547190483486 189.00796971474446L525.3025705991067 588.0979969838518C531.0106996148581 599.6322704525911 522.6177194019747 613.1502445795863 509.7488301797805 613.1502445795863H114.75116174896505C101.88227252677092 613.1502445795863 93.48929231388752 599.6322704525911 99.19742132963887 588.0979969838518L296.69452002391074 189.00796971474446Z " stroke-width="4.375" stroke="#e35ab5" fill="none" opacity="0.2575" transform="matrix(0.996917333733128,0.3498503922899626,0.07845909572784494,1.030626021489308,-30.15057178438917,-114.47999812002541)"></path><path d="M327.51003426834404 211.11476650792034C333.2415064976973 199.53319680699414 349.7585106183443 199.53319680699414 355.48998284769755 211.11476650792034L533.1109919118885 570.040410578915C538.2446553547923 580.4138758393403 530.696343889337 592.5714023084123 519.122578480662 592.5714023084123H163.87743863537952C152.30367322670457 592.5714023084123 144.75536176124928 580.4138758393403 149.88902520415303 570.040410578915L327.51003426834404 211.11476650792034Z " stroke-width="8.25" stroke="#c472d1" fill="none" opacity="0.505" transform="matrix(0.9986295347545738,0.22460852416755692,0.05233595624294383,1.0131435799575839,-20.386196399007076,-78.86330443303456)"></path><path d="M358.3255332539883 233.22159381867434C363.4156441019197 222.93602124469527 378.08436768383973 222.93602124469527 383.1744785317712 233.22159381867434L540.9193979658812 551.9828546915564C545.4785958359374 561.1955117436676 538.7749531179102 571.9925905548163 528.4963115227545 571.9925905548163H213.00370026300487C202.72505866784923 571.9925905548163 196.02141594982197 561.1955117436676 200.58061381987812 551.9828546915564L358.3255332539883 233.22159381867434Z " stroke-width="12.125" stroke="#9e86e9" fill="none" opacity="0.7525" transform="matrix(0.9996573249755573,0.1098704427501935,0.02617694830787315,1.0032198512874964,-10.33370931337214,-41.25227832309736)"></path><path d="M389.14103223963247 255.32842112942834C393.58978170614216 246.33884568239637 406.41022474933516 246.33884568239637 410.8589742158448 255.32842112942834L548.727804019874 533.9252988041978C552.7125363170826 541.977147647995 546.8535623464834 551.4137788012202 537.8700445648469 551.4137788012202H262.1299618906303C253.14644410899382 551.4137788012202 247.2874701383946 541.977147647995 251.27220243560328 533.9252988041978L389.14103223963247 255.32842112942834Z " stroke-width="16" stroke="#6b97ff" fill="none" opacity="1" transform="matrix(1,0,0,1,0,0)"></path></g></svg>