<svg xmlns="http://www.w3.org/2000/svg" version="1.1" xmlns:xlink="http://www.w3.org/1999/xlink" xmlns:svgjs="http://svgjs.dev/svgjs" viewBox="0 0 800 800"><g transform="matrix(1,0,0,1,0,0)"><polygon points="153,320.5 121.5,383.5 184.5,383.5" stroke-width="4" stroke="#ff3895" fill="none" opacity="0.1" transform="rotate(100, 400, 400)"></polygon><polygon points="202.3999969482422,306.39999923706057 147.1999969482422,416.79999923706055 257.59999694824216,416.79999923706055" stroke-width="6.4" stroke="#e954af" fill="none" opacity="0.28" transform="rotate(80, 400, 400)"></polygon><polygon points="251.79999389648438,292.2999984741211 172.89999389648438,450.0999984741211 330.6999938964844,450.0999984741211" stroke-width="8.8" stroke="#d169c6" fill="none" opacity="0.45999999999999996" transform="rotate(60, 400, 400)"></polygon><polygon points="301.2000061035156,278.2000015258789 198.60000610351562,483.4000015258789 403.8000061035156,483.4000015258789" stroke-width="11.2" stroke="#b57adb" fill="none" opacity="0.64" transform="rotate(40, 400, 400)"></polygon><polygon points="350.6000030517578,264.09999694824216 224.3000030517578,516.6999969482422 476.90000305175784,516.6999969482422" stroke-width="13.6" stroke="#9589ee" fill="none" opacity="0.82" transform="rotate(20, 400, 400)"></polygon><polygon points="400,250 250,550 550,550" stroke-width="16" stroke="#6b97ff" fill="none" opacity="0.9999999999999999" transform="rotate(0, 400, 400)"></polygon></g></svg>