<svg width="1024" height="1024" viewBox="0 0 1024 1024" fill="none" xmlns="http://www.w3.org/2000/svg">
<path d="M522.5 224C598.485 224 671.357 254.185 725.086 307.914C778.815 361.643 809 434.515 809 510.5C809 586.484 778.815 659.357 725.086 713.086C671.357 766.815 598.485 797 522.5 797L522.5 510.5L522.5 224Z" fill="#FEB64D"/>
<path d="M520.488 355C544.665 368.97 565.536 393.018 580.536 424.188C595.536 455.358 604.011 492.291 604.919 530.445C605.826 568.599 599.126 606.311 585.644 638.944C572.161 671.577 545.332 699.584 521.878 716L521.878 687.406L512.003 661.59C528.49 650.051 542.322 631.682 551.799 608.744C561.277 585.806 565.986 559.297 565.348 532.477C564.71 505.658 558.753 479.697 548.209 457.787C537.665 435.877 522.994 418.973 506 409.153L520.488 355Z" fill="#FE9142"/>
<path d="M325 266C393.161 266 458.53 293.077 506.726 341.274C554.923 389.47 582 454.839 582 523C582 591.161 554.923 656.53 506.726 704.726C458.53 752.923 393.161 780 325 780L325 523L325 266Z" fill="#FEDF3F"/>
</svg>
